<svg width="54" height="62" viewBox="0 0 54 62" fill="none" xmlns="http://www.w3.org/2000/svg">
<g clip-path="url(#clip0_84_82)">
<path d="M49.7983 55.3427L54.7174 0H0L0.0642857 0.718167L4.91143 55.3505L4.95257 55.8052L27.1517 62H27.5014L49.752 55.8L49.7931 55.3453L49.7983 55.3427ZM27.4063 12.0874H43.3054L42.8271 17.6674L27.1414 24.6734L27.4037 25.9341H42.1226L40.428 45.4408L27.3497 49.0833L14.2766 45.446L13.4537 36.1047H18.8357L19.2677 40.8399L19.3089 41.2997L27.2417 43.4181H27.5837L35.4291 41.2274L35.4677 40.7702L36.2083 32.023L36.2674 31.31H13.0037L12.5151 25.6964L28.7383 18.7188L28.4811 17.453H11.8183L11.3426 12.0797H27.3883L27.4063 12.0874Z" fill="#C6FF00"/>
</g>
<defs>
<clipPath id="clip0_84_82">
<rect width="54" height="62" fill="white"/>
</clipPath>
</defs>
</svg>
