<svg width="70" height="70" viewBox="0 0 70 70" fill="none" xmlns="http://www.w3.org/2000/svg">
<path d="M41.5625 52.5H8.75L8.74344 19.4819L33.7553 36.7981C34.1211 37.0512 34.5552 37.1868 35 37.1868C35.4448 37.1868 35.8789 37.0512 36.2447 36.7981L61.25 19.4906V39.375H65.625V17.5C65.6233 16.3402 65.1618 15.2284 64.3417 14.4083C63.5216 13.5882 62.4098 13.1267 61.25 13.125H8.75C7.59003 13.1262 6.47791 13.5875 5.65769 14.4077C4.83747 15.2279 4.37616 16.34 4.375 17.5V52.5C4.37674 53.6598 4.83823 54.7716 5.65832 55.5917C6.47842 56.4118 7.59021 56.8733 8.75 56.875H41.5625V52.5ZM56.4353 17.5L35 32.34L13.5647 17.5H56.4353Z" fill="white"/>
<path d="M56.875 61.25C61.7075 61.25 65.625 57.3325 65.625 52.5C65.625 47.6675 61.7075 43.75 56.875 43.75C52.0425 43.75 48.125 47.6675 48.125 52.5C48.125 57.3325 52.0425 61.25 56.875 61.25Z" fill="#489E2A"/>
</svg>
