<svg width="110" height="107" viewBox="0 0 110 107" fill="none" xmlns="http://www.w3.org/2000/svg">
<path fill-rule="evenodd" clip-rule="evenodd" d="M55 0C24.6125 0 0 24.5468 0 54.8532C0 79.1258 15.7437 99.6272 37.6062 106.895C40.3562 107.375 41.3875 105.73 41.3875 104.29C41.3875 102.987 41.3188 98.6672 41.3188 94.0733C27.5 96.6102 23.925 90.7135 22.825 87.628C22.2062 86.051 19.525 81.1828 17.1875 79.88C15.2625 78.8515 12.5125 76.3145 17.1187 76.246C21.45 76.1774 24.5438 80.2228 25.575 81.8684C30.525 90.165 38.4313 87.8337 41.5938 86.3938C42.075 82.8284 43.5188 80.4285 45.1 79.0572C32.8625 77.6859 20.075 72.9548 20.075 51.9734C20.075 46.0081 22.2063 41.0713 25.7125 37.2316C25.1625 35.8603 23.2375 30.2378 26.2625 22.6955C26.2625 22.6955 30.8687 21.2556 41.3875 28.318C45.7875 27.0838 50.4625 26.4667 55.1375 26.4667C59.8125 26.4667 64.4875 27.0838 68.8875 28.318C79.4063 21.1871 84.0125 22.6955 84.0125 22.6955C87.0375 30.2378 85.1125 35.8603 84.5625 37.2316C88.0688 41.0713 90.2 45.9396 90.2 51.9734C90.2 73.0234 77.3437 77.6859 65.1062 79.0572C67.1 80.7714 68.8187 84.0626 68.8187 89.205C68.8187 96.5417 68.75 102.438 68.75 104.29C68.75 105.73 69.7813 107.444 72.5313 106.895C83.4496 103.219 92.9371 96.2202 99.6585 86.8846C106.38 77.549 109.997 66.3463 110 54.8532C110 24.5468 85.3875 0 55 0Z" fill="#802A9E"/>
</svg>
