<svg width="57" height="57" viewBox="0 0 57 57" fill="none" xmlns="http://www.w3.org/2000/svg">
<path fill-rule="evenodd" clip-rule="evenodd" d="M0 0H57V57H0V0ZM43.5741 47.785C40.9308 47.785 39.4369 46.4075 38.2897 44.5312L33.9364 47.0606C35.5086 50.1671 38.722 52.5374 43.6976 52.5374C48.7849 52.5374 52.573 49.8964 52.573 45.0728C52.573 40.6006 50.0033 38.6128 45.4528 36.6581L44.1132 36.0858C41.8142 35.0883 40.8191 34.4399 40.8191 32.832C40.8191 31.5329 41.8166 30.5377 43.3841 30.5377C44.9208 30.5377 45.9111 31.1861 46.8303 32.832L51.0008 30.1554C49.2361 27.0512 46.7899 25.8661 43.3841 25.8661C38.6009 25.8661 35.5395 28.9251 35.5395 32.9436C35.5395 37.3018 38.1045 39.3656 41.971 41.0115L43.3105 41.5863C45.7544 42.655 47.2103 43.3057 47.2103 45.1416C47.2103 46.6759 45.7924 47.785 43.5741 47.785V47.785ZM22.8166 47.7494C20.976 47.7494 20.2089 46.4906 19.3681 44.9944L15.0076 47.6354C16.2711 50.3096 18.7554 52.5279 23.0422 52.5279C27.7899 52.5279 31.0412 50.0032 31.0412 44.4576V26.1701H25.6856V44.3864C25.6856 47.063 24.5741 47.7494 22.8142 47.7494H22.8166Z" fill="#212121"/>
</svg>
