<svg width="106" height="106" viewBox="0 0 106 106" fill="none" xmlns="http://www.w3.org/2000/svg">
<path d="M53 0.200001C23.839 0.200001 0.199951 23.839 0.199951 53C0.199951 82.161 23.839 105.8 53 105.8C82.1609 105.8 105.8 82.161 105.8 53C105.8 23.839 82.1609 0.200001 53 0.200001ZM40.0749 74.8845H29.3829V40.4765H40.0749V74.8845ZM34.6629 36.2525C31.2859 36.2525 29.1024 33.86 29.1024 30.901C29.1024 27.8815 31.3519 25.5605 34.8004 25.5605C38.2489 25.5605 40.3609 27.8815 40.4269 30.901C40.4269 33.86 38.2489 36.2525 34.6629 36.2525ZM79.1249 74.8845H68.4329V55.816C68.4329 51.3775 66.882 48.3635 63.0154 48.3635C60.062 48.3635 58.3075 50.404 57.532 52.3675C57.246 53.066 57.1744 54.056 57.1744 55.0405V74.879H46.477V51.449C46.477 47.1535 46.3394 43.562 46.1964 40.471H55.4859L55.9754 45.2505H56.1899C57.5979 43.0065 61.0464 39.6955 66.8159 39.6955C73.8504 39.6955 79.1249 44.409 79.1249 54.54V74.8845Z" fill="#3693E9"/>
</svg>
