<svg width="77" height="43" viewBox="0 0 77 43" fill="none" xmlns="http://www.w3.org/2000/svg">
<path d="M38.5 0.645752C16.9111 0.645752 0 9.80554 0 21.4999C0 33.1943 16.9111 42.3541 38.5 42.3541C60.0889 42.3541 77 33.1943 77 21.4999C77 9.80554 60.0889 0.645752 38.5 0.645752ZM34.5024 7.06242H38.7053L37.3707 13.4791H41.1244C43.505 13.4791 45.1027 13.8128 46.0139 14.6437C46.9026 15.465 47.1721 16.8125 46.816 18.6477L45.1477 26.3124H40.8742L42.411 19.2252C42.597 18.2531 42.5233 17.5761 42.196 17.22C41.872 16.8639 41.1565 16.6874 40.0849 16.6874H36.7194L34.6885 26.3124H30.4792L34.5024 7.06242V7.06242ZM16.0417 13.4791H24.5951C28.6729 13.4791 31.1433 16.2126 30.1776 20.2904C29.0547 25.0291 26.0517 26.3124 20.5205 26.3124H17.8768L17.0395 31.1249H12.7884L16.0417 13.4791ZM49.7292 13.4791H58.2826C62.3604 13.4791 64.8308 16.2126 63.8651 20.2904C62.7422 25.0291 59.736 26.3124 54.208 26.3124H51.5643L50.727 31.1249H46.4759L49.7292 13.4791ZM19.6831 16.6874L18.4736 23.1041H21.2167C23.5909 23.1041 25.7982 22.8346 26.1672 19.2926C26.3051 17.9226 25.734 16.6874 22.9909 16.6874H19.6831ZM53.3706 16.6874L52.1611 23.1041H54.9042C57.2784 23.1041 59.4857 22.8346 59.8547 19.2926C59.9926 17.9226 59.4247 16.6874 56.6784 16.6874H53.3706V16.6874Z" fill="#212121"/>
</svg>
