<svg width="57" height="40" viewBox="0 0 57 40" fill="none" xmlns="http://www.w3.org/2000/svg">
<path d="M38.9649 4.48039C38.687 4.48039 38.5018 4.5178 38.3147 4.56411V4.59261H38.3432C38.4733 4.83308 38.687 5.02011 38.8527 5.24277C38.9827 5.49392 39.0931 5.75221 39.2143 6.00336L39.2517 5.96596C39.4743 5.80743 39.5866 5.55805 39.5866 5.17686C39.4939 5.06464 39.4743 4.9453 39.3924 4.84199C39.2998 4.68346 39.0949 4.60152 38.9649 4.48039ZM13.7032 35.8179H11.5051C11.4386 32.3193 11.2252 28.8249 10.8657 25.3442H10.8479L7.49911 35.8179H5.81939L2.49736 25.3442H2.46886C2.2107 28.8301 2.05626 32.3229 2.00574 35.8179H0.00183105C0.110338 31.4257 0.435515 27.0414 0.976175 22.6812H3.70327L6.87567 32.3302H6.89349L10.0944 22.6812H12.6915C13.2668 27.4692 13.6106 31.8475 13.7121 35.8179H13.7032ZM23.24 26.1244C22.3494 30.9854 21.1613 34.5212 19.706 36.7192C18.5553 38.4168 17.3031 39.27 15.9387 39.27C15.5771 39.27 15.1318 39.1578 14.5938 38.9351V37.7666C14.8628 37.804 15.1692 37.8307 15.513 37.8307C16.1524 37.8307 16.6636 37.6455 17.0537 37.3017C17.5169 36.8742 17.7502 36.3933 17.7502 35.8642C17.7502 35.4937 17.5739 34.751 17.2034 33.6199L14.8005 26.1244H16.9629L18.6889 31.7282C19.079 33.0089 19.2465 33.8906 19.1716 34.4001C20.1264 31.876 20.7855 29.1115 21.1577 26.1244H23.24ZM52.5184 35.8179H46.2662V22.6812H48.3717V34.2041H52.5184V35.8179ZM44.6328 36.135L42.221 34.9469C42.4348 34.7706 42.6378 34.5764 42.8249 34.3537C43.8544 33.1567 44.3656 31.3666 44.3656 29.01C44.3656 24.6584 42.6592 22.4888 39.2446 22.4888C37.5737 22.4888 36.2663 23.0357 35.3294 24.1401C34.3087 25.346 33.7886 27.1272 33.7886 29.4749C33.7886 31.7852 34.2428 33.4738 35.153 34.5586C35.9884 35.524 37.2406 36.0156 38.9204 36.0156C39.542 36.0156 40.1174 35.9408 40.6375 35.7841L43.7832 37.6206L44.6453 36.1368L44.6328 36.135ZM36.8131 33.1835C36.2752 32.3302 36.0151 30.9569 36.0151 29.0634C36.0151 25.7521 37.018 24.1009 39.0308 24.1009C40.08 24.1009 40.8584 24.4999 41.35 25.289C41.879 26.1511 42.148 27.5066 42.148 29.3805C42.148 32.7114 41.1362 34.3911 39.1323 34.3911C38.0743 34.3911 37.3048 33.9921 36.8042 33.2031L36.8131 33.1835ZM32.8784 32.1824C32.8784 33.2957 32.4705 34.2148 31.644 34.9184C30.8281 35.6327 29.7416 35.9943 28.3593 35.9943C27.0697 35.9943 25.8353 35.5864 24.6205 34.7688L25.1869 33.6377C26.2254 34.1578 27.1623 34.4179 28.0173 34.4179C28.8064 34.4179 29.4281 34.2415 29.8734 33.8977C30.3187 33.5451 30.5877 33.0534 30.5877 32.4318C30.5877 31.6516 30.0408 30.9836 29.0469 30.4279C28.1278 29.9184 26.2824 28.8693 26.2824 28.8693C25.2795 28.1372 24.7879 27.357 24.7879 26.0674C24.7879 25.0004 25.1584 24.1472 25.9012 23.497C26.6529 22.8291 27.6076 22.5049 28.7957 22.5049C29.9778 22.4946 31.1365 22.8335 32.1267 23.4792L31.6172 24.6103C30.8213 24.2598 29.9628 24.0738 29.0932 24.0635C28.4163 24.0635 27.8962 24.2309 27.5346 24.5551C27.173 24.8793 26.9504 25.2872 26.9504 25.7984C26.9504 26.5786 27.5079 27.2466 28.5268 27.8201C29.4637 28.3296 31.3465 29.4072 31.3465 29.4072C32.3761 30.1304 32.8873 30.9106 32.8873 32.1806L32.8784 32.1824ZM55.1547 18.2762C53.8829 18.2477 52.8996 18.3777 52.0749 18.7304C51.8433 18.823 51.4621 18.823 51.4247 19.1205C51.5548 19.2505 51.5726 19.4554 51.6848 19.6299C51.879 19.9452 52.2049 20.3727 52.5113 20.5954C52.8462 20.8554 53.1793 21.1155 53.5231 21.3381C54.1447 21.7193 54.8412 21.942 55.4521 22.3214C55.7959 22.5441 56.1486 22.8308 56.4906 23.0642C56.667 23.1853 56.7774 23.3991 57.0001 23.4721V23.4258C56.8878 23.2868 56.8611 23.082 56.7489 22.9163C56.5904 22.7578 56.4336 22.6189 56.2751 22.4621C55.8105 21.8454 55.2536 21.304 54.6239 20.8572C54.1144 20.5134 53.0011 20.0307 52.7963 19.4465L52.7678 19.4091C53.1116 19.3806 53.5195 19.2505 53.8526 19.1579C54.3905 19.019 54.8911 19.0457 55.4486 18.9067C55.7043 18.8404 55.958 18.7661 56.2092 18.6841V18.5451C55.9224 18.2584 55.7086 17.8683 55.4112 17.5993C54.5915 16.882 53.7165 16.2305 52.7945 15.6506C52.294 15.3264 51.6634 15.1216 51.1344 14.8526C50.9491 14.76 50.625 14.7137 50.5216 14.5551C50.2349 14.2025 50.0674 13.7482 49.8626 13.3296C49.3966 12.4241 48.9635 11.502 48.5641 10.5651C48.2773 9.94349 48.1098 9.33074 47.7571 8.75539C46.1237 6.05502 44.3425 4.42339 41.6154 2.81849C41.0311 2.48361 40.3258 2.34467 39.583 2.16833C39.184 2.15052 38.7939 2.12202 38.3949 2.10421C38.1348 1.99199 37.8855 1.6963 37.6628 1.54667C36.7544 0.971331 34.4156 -0.263076 33.7565 1.37033C33.329 2.4088 34.3871 3.42055 34.7594 3.94067C35.0283 4.31117 35.3721 4.72086 35.5663 5.12877C35.6785 5.40664 35.7052 5.69521 35.8174 5.98199C36.0686 6.67846 36.3091 7.45686 36.6439 8.10702C36.8203 8.44189 37.0055 8.7928 37.2282 9.09027C37.3582 9.26661 37.5809 9.34143 37.6272 9.62821C37.4045 9.95239 37.3867 10.4262 37.2656 10.8163C36.6902 12.6154 36.9129 14.833 37.7198 16.1601C37.9799 16.5591 38.5819 17.4319 39.3906 17.097C40.1049 16.8102 39.9481 15.9089 40.1512 15.1109C40.1975 14.9167 40.169 14.7956 40.2634 14.6656V14.703C40.495 15.1483 40.7176 15.5758 40.9225 16.0211C41.4052 16.8013 42.2673 17.6082 42.9816 18.1461C43.3628 18.4329 43.6585 18.9263 44.1323 19.1009V19.0546H44.0949C43.9934 18.9156 43.8633 18.8497 43.7333 18.7393C43.4325 18.4413 43.1533 18.1223 42.8979 17.7846C42.2388 16.8939 41.6457 15.9107 41.1255 14.8989C40.875 14.399 40.6462 13.8885 40.4398 13.3688C40.3471 13.1836 40.3471 12.895 40.1886 12.8024C39.9481 13.1462 39.5955 13.4419 39.428 13.8783C39.1216 14.5551 39.0931 15.3995 38.9738 16.2723C38.9186 16.2901 38.9453 16.2723 38.9186 16.3097C38.4091 16.1796 38.2328 15.6595 38.0458 15.2142C37.563 14.0831 37.4882 12.2734 37.8979 10.9748C38.0101 10.64 38.4822 9.59258 38.2969 9.2773C38.1954 8.97092 37.8801 8.79458 37.7127 8.55411C37.4989 8.25664 37.2852 7.87724 37.1373 7.54236C36.7561 6.65174 36.5709 5.66849 36.1541 4.77786C35.9688 4.36996 35.634 3.94246 35.365 3.56305C35.0586 3.13555 34.7255 2.83096 34.4922 2.32864C34.4085 2.1523 34.298 1.86552 34.428 1.67849C34.4565 1.54846 34.5207 1.50214 34.6507 1.46474C34.8555 1.28839 35.4487 1.51105 35.6536 1.61258C36.2378 1.84414 36.7294 2.0668 37.2211 2.40167C37.4437 2.56021 37.6842 2.85589 37.9727 2.93961H38.3076C38.8171 3.05183 39.3835 2.96811 39.8573 3.11596C40.7016 3.38492 41.4622 3.77502 42.148 4.20074C44.2452 5.547 45.9507 7.42206 47.0927 9.63711C47.2869 9.99871 47.3706 10.3336 47.547 10.713C47.8711 11.5021 48.2897 12.2894 48.6228 13.0411C48.9559 13.7928 49.273 14.5534 49.7539 15.175C49.9944 15.5099 50.942 15.6845 51.3766 15.8519C51.6919 15.9997 52.1836 16.1298 52.4614 16.2972C53.0083 16.6321 53.5462 17.0115 54.0574 17.382C54.3175 17.5583 55.1066 17.9573 55.1529 18.2726L55.1547 18.2762Z" fill="#C6FF00"/>
</svg>
