<svg width="57" height="57" viewBox="0 0 57 57" fill="none" xmlns="http://www.w3.org/2000/svg">
<g clip-path="url(#clip0_84_90)">
<path d="M10.3246 3.80005H1.89995C1.56564 3.79995 1.23722 3.88806 0.947853 4.05549C0.658486 4.22291 0.418418 4.46373 0.251889 4.75361C0.0853599 5.0435 -0.00173429 5.37219 -0.000599401 5.7065C0.000535484 6.04081 0.0898593 6.3689 0.258353 6.65765L26.8584 52.2577C27.0256 52.5447 27.2652 52.7829 27.5533 52.9484C27.8413 53.1139 28.1677 53.201 28.5 53.201C28.8322 53.201 29.1586 53.1139 29.4466 52.9484C29.7347 52.7829 29.9743 52.5447 30.1416 52.2577L56.7416 6.65765C56.91 6.3689 56.9994 6.04081 57.0005 5.7065C57.0016 5.37219 56.9145 5.0435 56.748 4.75361C56.5815 4.46373 56.3414 4.22291 56.052 4.05549C55.7627 3.88806 55.4343 3.79995 55.0999 3.80005H46.6754L28.5 34.0937L10.3246 3.80005Z" fill="#212121"/>
<path d="M42.2446 3.80005H31.122L28.5 9.05165L25.8742 3.80005H14.7554L28.5 26.7065L42.2446 3.80005Z" fill="#212121"/>
</g>
<defs>
<clipPath id="clip0_84_90">
<rect width="57" height="57" fill="white"/>
</clipPath>
</defs>
</svg>
