<svg width="65" height="62" viewBox="0 0 65 62" fill="none" xmlns="http://www.w3.org/2000/svg">
<g clip-path="url(#clip0_84_99)" filter="url(#filter0_d_84_99)">
<path d="M14.3246 3.80005H5.89995C5.56564 3.79995 5.23722 3.88806 4.94785 4.05549C4.65849 4.22292 4.41842 4.46373 4.25189 4.75361C4.08536 5.0435 3.99827 5.37219 3.9994 5.7065C4.00054 6.04081 4.08986 6.3689 4.25835 6.65765L30.8584 52.2577C31.0256 52.5447 31.2652 52.7828 31.5533 52.9484C31.8413 53.1139 32.1677 53.201 32.5 53.201C32.8322 53.201 33.1586 53.1139 33.4466 52.9484C33.7347 52.7828 33.9743 52.5447 34.1416 52.2577L60.7416 6.65765C60.91 6.3689 60.9994 6.04081 61.0005 5.7065C61.0016 5.37219 60.9145 5.0435 60.748 4.75361C60.5815 4.46373 60.3414 4.22292 60.052 4.05549C59.7627 3.88806 59.4343 3.79995 59.1 3.80005H50.6754L32.5 34.0937L14.3246 3.80005Z" fill="#C6FF00"/>
<path d="M46.2446 3.80005H35.122L32.5 9.05165L29.8742 3.80005H18.7554L32.5 26.7065L46.2446 3.80005Z" fill="#C6FF00"/>
</g>
<defs>
<filter id="filter0_d_84_99" x="0" y="0" width="65" height="65" filterUnits="userSpaceOnUse" color-interpolation-filters="sRGB">
<feFlood flood-opacity="0" result="BackgroundImageFix"/>
<feColorMatrix in="SourceAlpha" type="matrix" values="0 0 0 0 0 0 0 0 0 0 0 0 0 0 0 0 0 0 127 0" result="hardAlpha"/>
<feOffset dy="4"/>
<feGaussianBlur stdDeviation="2"/>
<feComposite in2="hardAlpha" operator="out"/>
<feColorMatrix type="matrix" values="0 0 0 0 0 0 0 0 0 0 0 0 0 0 0 0 0 0 0.25 0"/>
<feBlend mode="normal" in2="BackgroundImageFix" result="effect1_dropShadow_84_99"/>
<feBlend mode="normal" in="SourceGraphic" in2="effect1_dropShadow_84_99" result="shape"/>
</filter>
<clipPath id="clip0_84_99">
<rect width="57" height="57" fill="white" transform="translate(4)"/>
</clipPath>
</defs>
</svg>
