<svg width="65" height="65" viewBox="0 0 65 65" fill="none" xmlns="http://www.w3.org/2000/svg">
<path d="M55.5038 9.44955C52.5104 6.44199 48.9456 4.05759 45.0172 2.43528C41.0888 0.812966 36.8754 -0.0148048 32.6224 0.000200405C14.8013 0.000200405 0.277499 14.4545 0.261175 32.1995C0.261175 37.8829 1.75477 43.4119 4.57465 48.3072L0 65L17.1559 60.5231C21.902 63.0943 27.2191 64.4421 32.6224 64.4434H32.6387C50.464 64.4434 64.9837 49.9891 65 32.2279C65.0041 27.995 64.1667 23.8031 62.5362 19.8937C60.9058 15.9843 58.5143 12.4348 55.4997 9.44955H55.5038ZM32.6224 58.9916C27.8029 58.9932 23.072 57.7021 18.927 55.2541L17.9476 54.6691L7.76996 57.326L10.4878 47.4419L9.8512 46.4222C7.15705 42.158 5.73217 37.2208 5.74177 32.1832C5.74177 17.4526 17.8089 5.43581 32.6387 5.43581C36.1717 5.4295 39.671 6.11942 42.9348 7.4658C46.1987 8.81218 49.1626 10.7884 51.6556 13.2805C54.1573 15.7629 56.1405 18.7137 57.4909 21.9629C58.8413 25.2122 59.5321 28.6954 59.5235 32.2117C59.5071 46.9951 47.44 58.9916 32.6224 58.9916ZM47.3747 38.9473C46.5708 38.5451 42.6001 36.5992 41.8533 36.3229C41.1106 36.0588 40.5679 35.9207 40.0373 36.7251C39.4946 37.5254 37.9439 39.3495 37.4786 39.8735C37.0134 40.4138 36.5319 40.4748 35.7239 40.0766C34.9199 39.6704 32.3123 38.8254 29.2271 36.0751C26.8194 33.9423 25.2075 31.3017 24.7259 30.5014C24.2607 29.697 24.6811 29.2664 25.0851 28.8642C25.4401 28.5067 25.889 27.9217 26.293 27.4586C26.7011 26.9954 26.8358 26.6542 27.101 26.1179C27.3663 25.5736 27.2398 25.1104 27.0398 24.7082C26.8358 24.3061 25.2238 20.337 24.5423 18.7364C23.8894 17.1561 23.2242 17.3755 22.7263 17.3551C22.2611 17.3267 21.7184 17.3267 21.1756 17.3267C20.7657 17.3369 20.3624 17.4312 19.9909 17.6039C19.6194 17.7766 19.2878 18.0238 19.0168 18.3301C18.2741 19.1345 16.1969 21.0804 16.1969 25.0495C16.1969 29.0185 19.0944 32.8332 19.5024 33.3735C19.9024 33.9138 25.1912 42.0348 33.308 45.5285C35.226 46.3613 36.7359 46.8529 37.9153 47.2266C39.8537 47.8441 41.6044 47.7507 43.0001 47.5516C44.5508 47.316 47.7787 45.6016 48.4602 43.7207C49.1295 41.8357 49.1295 40.227 48.9255 39.8898C48.7255 39.5485 48.1828 39.3495 47.3747 38.9473Z" fill="#489E2A"/>
</svg>
